<svg id="Calque_1" data-name="Calque 1" xmlns="http://www.w3.org/2000/svg" viewBox="0 0 1198.71 332.05"><defs><style>.cls-1{fill:#fff;}</style></defs><title>logo-without-icon</title><path class="cls-1" d="M.24,225.77l15.49.79q7.55,0,7.55-8.74V20c0-3.18-.67-5.49-2-6.95S17.58,11,14.14,11.28l-13.9.8V.16H93.58q41.31,0,61,15.69t19.66,48.26q0,31.38-19.46,50.05t-52.83,18.66H60.22v85q0,8.75,7.94,8.74l19.46-.79v11.51H.24ZM93.58,121.7q18.27,0,30.39-16.28t12.11-41.31q0-23.83-13.3-38.33T87.23,11.28H65a4.85,4.85,0,0,0-3.17,1.39,4.34,4.34,0,0,0-1.59,3.38V121.7Z" transform="translate(-0.24 -0.16)"/><path class="cls-1" d="M351,227v10.32h-56.4c.26-1.84.6-4.3,1-7.34a60.85,60.85,0,0,0,.59-7.35l.8-15.49q-8.74,17.09-22.44,24.62t-32.77,7.55q-25,0-37.93-11.32T190.9,194.39q0-30.58,25.62-45.08T297,134.81v-23q0-18.66-8.74-26.61T260,77.22q-30.19,0-30.19,16.68a19.11,19.11,0,0,0,1.79,7.35A19.8,19.8,0,0,1,233.4,109q0,6.77-4.37,10.13a17.7,17.7,0,0,1-11.12,3.38q-8.35,0-12.91-5.17t-4.57-13.5q0-16.68,17.48-27t46.86-10.33q66.33,0,66.33,56v97.71q0,7.54,5.17,7.54Zm-67.52-16.49Q295.76,196,297,172.94V145.53q-37.35,0-53.63,10.93T227,191.21q0,16.68,7,25.22T253.65,225Q271.13,225,283.44,210.47Z" transform="translate(-0.24 -0.16)"/><path class="cls-1" d="M524.14,88.93q17.07,22.46,17.08,65.34,0,43.69-18.47,65.34t-57,21.65q-16.29,0-28-5.37t-17.28-15.68v94.53q0,7.93,5.17,7.94l24.62-.79v10.32H368.44V321.89l12.71.79q5.16-.4,5.16-7.94V87.94q0-7.93-5.16-7.94l-14.3.79V70.46h55.21a128.1,128.1,0,0,0-1.59,20.26v11.52Q426,85.17,439.54,75.83t33.36-9.34Q507.06,66.49,524.14,88.93Zm-90.36,7.55q-12.51,19.27-12.51,51V164.2q0,34.56,11.32,50.44t33.16,15.89q15.5,0,23.83-6.95t11.92-23.23q3.57-16.29,3.57-46.08t-3-46.07q-3-16.29-10.92-23.64t-22.64-7.34Q446.29,77.22,433.78,96.48Z" transform="translate(-0.24 -0.16)"/><path class="cls-1" d="M699.49,86.55q19.26,20.06,20.06,55v11.52H605.16q0,36.15,12.51,55.41t37.54,19.66q19.85,0,33.56-9.93a59,59,0,0,0,20.06-24.63l9.13,6.76q-8,19.07-26.81,30a81.38,81.38,0,0,1-41.5,10.93q-80.64,0-80.63-87,0-43.29,20.25-65.54t59.58-22.24Q680.23,66.49,699.49,86.55Zm-83.41,8.94q-10.51,18.27-10.52,47.66h72.29a6.82,6.82,0,0,0,5.95-2.78q2-2.77,2-10.33,0-27-8.54-39.92t-28.4-12.9Q626.61,77.22,616.08,95.49Z" transform="translate(-0.24 -0.16)"/><path class="cls-1" d="M871.47,75.23Q880,84,880,97.47q0,9.15-4.56,13.91t-12.12,4.76a18.11,18.11,0,0,1-10.13-3q-4.56-3-4.56-9.33a34.71,34.71,0,0,1,1.58-9.14A33.94,33.94,0,0,0,851.81,86a8.76,8.76,0,0,0-2.18-5.76c-1.46-1.71-3.77-2.58-7-2.58q-12.31,0-21.45,11.72t-14.3,29a140.52,140.52,0,0,0-6,33.16v68.72q0,7.54,5.17,7.54l24.22-.79v10.32H748.94V227l12.71.79q5.16,0,5.16-7.54V87.94q0-7.93-5.16-7.94l-14.3.79V70.46h56a48.12,48.12,0,0,0-1.59,7.75,70.38,70.38,0,0,0-.8,10.52V108.2q9.13-22.24,20.46-32a38.77,38.77,0,0,1,26-9.73Q862.94,66.49,871.47,75.23Z" transform="translate(-0.24 -0.16)"/><path class="cls-1" d="M905,180.88l10.33-.79a45,45,0,0,0,7.95,26.21,53.11,53.11,0,0,0,21.05,17.88A64.59,64.59,0,0,0,973,230.53q15.88,0,24.63-8.14t8.74-22q0-11.11-6.36-18.27t-21.44-11.52l-38.14-10.73q-15.89-4.77-25-16.08t-9.13-28q0-21.83,16.28-35.55T967,66.49a75.2,75.2,0,0,1,14.1,1.19q6.15,1.2,15.29,4,12.3,3.57,18.27,3.57a20.74,20.74,0,0,0,11.12-3.18l-2.38,45.28h-8.74q0-15.87-12.51-28t-34-12.11q-15.11,0-23.64,7.94T936,105.42q0,19.45,24.62,26.21l38.13,10.73q20.26,5.56,28.6,16.48t8.34,28.4q0,25.81-18.27,39.92t-47.66,14.1a88.23,88.23,0,0,1-17.28-1.79q-8.94-1.78-27.21-6.95a42,42,0,0,0-10.72-1.59q-8,0-11.52,2.38Z" transform="translate(-0.24 -0.16)"/><path class="cls-1" d="M1068.28,180.88l10.32-.79a45,45,0,0,0,8,26.21,53.11,53.11,0,0,0,21,17.88,64.63,64.63,0,0,0,28.6,6.35q15.88,0,24.62-8.14t8.74-22q0-11.11-6.35-18.27t-21.45-11.52l-38.13-10.73q-15.9-4.77-25-16.08t-9.13-28q0-21.83,16.28-35.55t44.49-13.7a75.2,75.2,0,0,1,14.1,1.19q6.15,1.2,15.29,4,12.31,3.57,18.27,3.57A20.77,20.77,0,0,0,1189,72.05l-2.39,45.28h-8.74q0-15.87-12.51-28t-34-12.11q-15.09,0-23.63,7.94t-8.54,20.26q0,19.45,24.63,26.21L1162,142.36q20.25,5.56,28.59,16.48t8.35,28.4q0,25.81-18.28,39.92T1133,241.26a88.23,88.23,0,0,1-17.28-1.79q-8.92-1.78-27.21-6.95a42,42,0,0,0-10.72-1.59c-5.3,0-9.13.79-11.52,2.38Z" transform="translate(-0.24 -0.16)"/></svg>